# xmcd CD database file
#
# Track frame offsets:
#	150
#	19034
#	35392
#	54097
#	65106
#	91653
#	107247
#	118990
#	134399
#	154495
#	169595
#	186034
#	204746
#	219272
#	245218
#	261630
#	283120
#	302659
#	315371
#	333931
#
# Disc length: 4645 seconds
#
# Revision: 0
# Processed by: cddbd v1.5.2PL0 Copyright (c) Steve Scherf et al.
# Submitted via: CDex 1.70beta2
#
DISCID=28122314
DTITLE=Various Artist - 100 Hits Of The 70's
DYEAR=2005
DGENRE=70's
TTITLE0=The Floaters - Float On
TTITLE1=Marianne Rosenberg - Ich Bin Wie Du
TTITLE2=Ralph Mctell - Streets Of London
TTITLE3=Sammy Davis Jr. - Baretta's Theme
TTITLE4=John Miles - Music
TTITLE5=Trinity - 002.345.709 (That's My Number)
TTITLE6=Sutherland Brothers and Quiver - Arms Of Mary
TTITLE7=The Rubettes - Sugar Baby Love
TTITLE8=The Manhattans - Kiss And Say Goodbye
TTITLE9=Alessi Brothers - Oh Lori
TTITLE10=Thelma Houston - Don't Leave Me This Way
TTITLE11=Leo Sayer - When I Need You
TTITLE12=Stealers Wheel - Late Again
TTITLE13=Dr. Buzzards Original Savannah Band - Cherchez La Femme
TTITLE14=Elkie Brooks - Pearl's A Singer
TTITLE15=Veronica Unlimited - What Kind Of Dance Is This
TTITLE16=Baccara - Yes Sir I Can Boogie
TTITLE17=5000 Volts - I'm On Fire
TTITLE18=Love Unlimited Orchestra - Love's Theme
TTITLE19=Gladys Knight and The Pips - Baby Don't Change Your Mind
EXTD=YEAR: 2005
EXTT0=
EXTT1=
EXTT2=
EXTT3=
EXTT4=
EXTT5=
EXTT6=
EXTT7=
EXTT8=
EXTT9=
EXTT10=
EXTT11=
EXTT12=
EXTT13=
EXTT14=
EXTT15=
EXTT16=
EXTT17=
EXTT18=
EXTT19=
PLAYORDER=
